<?xml version="1.0" encoding="UTF-8"?><svg id="Layer_1" xmlns="http://www.w3.org/2000/svg" xmlns:xlink="http://www.w3.org/1999/xlink" viewBox="0 0 767.59 143.82"><defs><style>.cls-1{fill:url(#linear-gradient-2);}.cls-2{fill:#575756;}.cls-3{clip-path:url(#clippath-2);}.cls-4{fill:#e30613;}.cls-5{clip-path:url(#clippath-1);}.cls-6{clip-path:url(#clippath);}.cls-7{fill:none;}.cls-8{fill:url(#linear-gradient-3);}.cls-9{fill:url(#linear-gradient);}</style><clipPath id="clippath"><path class="cls-7" d="M616.02,12.37c-8.98,8.3-13.53,18.84-13.53,31.33,0,10.35,3.06,20.16,9.1,29.14,5.14,7.58,14.3,17.3,28.02,29.75l21.3,19.98c3.92,2.89,9.41,2.32,12.58-1.21,3.29-3.67,3.12-9.47-.51-13-11.05-10-9.36-8.52-20.41-18.52-11.5-10.31-19.55-19-23.94-25.85-4.15-6.46-6.25-13.09-6.25-19.69,0-7.76,2.64-13.91,8.06-18.81,5.55-5.01,12.04-7.45,19.84-7.45s14.79,2.02,20.83,5.99c3.78,2.61,7.66,6.29,11.57,10.97-.02,0-.05,0-.07-.01,1.09,1.41,2.98,4.26,3.71,8.34,.95,5.35-.67,9.59-1.4,11.22,3.07,0,7.38-1.45,10.85-5.23,3.5-3.81,7.83-18.18-1.64-29.31,0,0-.02-.02-.03-.03-2.43-2.82-4.85-6.18-12.24-11.11C672.84,2.98,661.89,0,649.26,0s-24.35,4.16-33.23,12.37"/></clipPath><linearGradient id="linear-gradient" x1="-3846.49" y1="1628.08" x2="-3846.37" y2="1628.08" gradientTransform="translate(3148809.43 -1332458.24) scale(818.46)" gradientUnits="userSpaceOnUse"><stop offset="0" stop-color="#8c1912"/><stop offset=".45" stop-color="#d71016"/><stop offset="1" stop-color="#e94a41"/></linearGradient><clipPath id="clippath-1"><path class="cls-7" d="M616.02,12.37c-8.98,8.3-13.53,18.84-13.53,31.33,0,4.53,.59,8.95,1.75,13.25,.39-4.74,1.79-12.73,7.2-20.49,12.8-18.35,36.28-18.44,38.83-18.41,7.78,0,14.79,2.02,20.83,5.99,3.78,2.61,7.66,6.29,11.57,10.97-.02,0-.05,0-.07-.01,1.09,1.41,2.98,4.26,3.71,8.34,.95,5.35-.67,9.59-1.4,11.22,3.07,0,7.38-1.45,10.85-5.23,3.5-3.81,7.83-18.18-1.64-29.31,0,0-.02-.02-.03-.03-2.43-2.82-4.85-6.18-12.24-11.11C672.84,2.98,661.89,0,649.26,0s-24.35,4.16-33.23,12.37"/></clipPath><linearGradient id="linear-gradient-2" x1="-3846.49" y1="1628.39" x2="-3846.37" y2="1628.39" gradientTransform="translate(3148809.43 -1332746.24) scale(818.46)" gradientUnits="userSpaceOnUse"><stop offset="0" stop-color="#e94a41"/><stop offset=".55" stop-color="#d71016"/><stop offset="1" stop-color="#8c1912"/></linearGradient><clipPath id="clippath-2"><path class="cls-7" d="M720.78,0c-12.63,0-23.59,2.98-32.59,8.89-2.58,1.72-4.55,3.25-6.13,4.63-.54,.46-1.02,.91-1.46,1.33-.02,.02-.04,.04-.06,.06-.01,0-.02,.02-.03,.03-2,1.93-3.27,3.57-4.55,5.06,0,.01-.02,.02-.03,.03-9.48,11.12-5.14,25.49-1.65,29.31,3.47,3.78,7.78,5.23,10.85,5.23-.73-1.63-2.35-5.87-1.4-11.22,.73-4.08,2.62-6.93,3.71-8.34,0,0-.01,0-.02,0,3.92-4.68,7.79-8.35,11.57-10.96,6.04-3.97,13.04-5.99,20.83-5.99s14.29,2.44,19.84,7.45c5.42,4.9,8.06,11.05,8.06,18.81,0,6.6-2.1,13.22-6.25,19.69-4.39,6.85-12.44,15.54-23.94,25.85l-38.45,38.27s-.06,.06-.08,.08l-.04,.04h0c-1.61,1.66-2.61,3.92-2.61,6.41,0,5.07,4.11,9.18,9.18,9.18,2.46,0,4.69-.97,6.34-2.55h0s.07-.07,.07-.07c.05-.05,.1-.1,.14-.14l38.41-38.46c13.71-12.45,22.87-22.18,28.02-29.75,6.04-8.98,9.1-18.79,9.1-29.14,0-12.49-4.55-23.03-13.53-31.33-8.88-8.21-20.06-12.37-33.23-12.37h-.05Z"/></clipPath><linearGradient id="linear-gradient-3" x1="-3843.97" y1="1629.79" x2="-3843.85" y2="1629.79" gradientTransform="translate(1751434.81 4129182.05) rotate(90) scale(1074.2)" gradientUnits="userSpaceOnUse"><stop offset="0" stop-color="#e30613"/><stop offset=".13" stop-color="#e30613"/><stop offset=".18" stop-color="#cd0920"/><stop offset=".57" stop-color="#312783"/><stop offset="1" stop-color="#312783"/></linearGradient></defs><rect class="cls-2" x="565.33" y="2.03" width=".57" height="140.19"/><g><g class="cls-6"><rect class="cls-9" x="602.49" y="0" width="101.1" height="125.47"/></g><g class="cls-5"><rect class="cls-1" x="602.49" y="0" width="101.1" height="56.95"/></g><g class="cls-3"><rect class="cls-8" x="644.9" y="-12.96" width="144.24" height="169.74" transform="translate(18.65 249.57) rotate(-20)"/></g></g><g><path class="cls-4" d="M70.11,2.04c-17.72,0-33.11,5.99-46.11,17.45-1.07,.93-2.13,1.93-3.2,2.94C7.03,36.03,0,52.67,0,72.06s7.21,35.71,20.74,49.32c9.32,9.33,20.06,15.65,32.12,18.67,5.53,1.3,11.24,2.06,17.25,2.06s11.88-.67,17.32-2.06c1.54-.34,3.06-.81,4.55-1.28,.58-.21,1.18-.42,1.79-.66h.08c8.26-2.95,15.78-7.54,22.71-13.73l21.6,15.66,1.98,1.46V1.95l-23.64,17.8C103.43,8.03,87.91,2.04,70.11,2.04m29.79,99.82c-6.46,6.39-13.87,10.26-22.32,11.63-2.4,.42-4.86,.62-7.47,.62-11.72,0-21.65-3.86-29.92-12.13-8.32-8.25-12.13-18.25-12.13-29.93,0-10.66,3.22-19.91,10.14-27.71,.6-.75,1.26-1.46,1.99-2.21,8.27-8.33,18.2-12.13,29.92-12.13s21.53,4.01,29.79,12.27c8.27,8.27,12.26,18.13,12.26,29.78s-3.99,21.52-12.26,29.8"/><path class="cls-4" d="M325.6,138.67c6.78,2.27,13.98,3.4,21.64,3.4s14.8-1.14,21.73-3.4c5.05-1.61,9.94-3.87,14.65-6.8,10.8-6.66,19.4-15.59,25.33-26.79l2.61-4.99-24.4-13.8-2.8,5.31c-3.66,6.87-8.66,12.4-15.33,16.45-6.66,4.06-13.9,6.01-21.79,6.01-6.8,0-13.19-1.39-19.11-4.48l60.38-53.23,20.45-18.06-2.6-4.19c-6.2-9.8-14.78-17.39-24.86-23.05-7.39-4.2-15.27-7.01-23.52-8.21-3.47-.61-7.06-.87-10.73-.87-1.85,0-3.66,.07-5.45,.19-16.8,1.21-31.45,8.07-43.79,20.21-13.78,13.59-20.79,30.25-20.79,49.65,0,11.24,2.47,21.52,7.2,30.85,3.4,6.65,7.94,12.78,13.53,18.45,8.19,8.2,17.38,14.01,27.66,17.33m-19.88-73.19v-.06c1.22-8.86,4.95-16.64,11.61-23.3,1.14-1.13,2.33-2.22,3.53-3.2h.07c7.53-6.13,16.27-8.94,26.32-8.94,8.07,0,15.4,1.98,22.07,6.13l-60.31,53.51c-2.53-5.54-3.72-11.4-3.72-17.58,0-2.3,.13-4.42,.45-6.56"/><path class="cls-4" d="M236.33,141.86h28.03V59.6c0-14.93-5.11-28-15.68-38.6-10.61-10.6-23.68-15.68-38.64-15.68-13.17,0-24.93,4.11-34.79,12.66l-19.5-15.8V141.86h28.03V59.6c0-7.3,2.47-13.42,7.65-18.61,5.17-5.18,11.32-7.66,18.61-7.66s13.47,2.36,18.72,7.42c5.32,5.18,7.57,11.51,7.57,18.86v82.26Z"/><polygon class="cls-4" points="528.74 142.03 483.37 62.13 517.43 2.03 484.27 2.03 466.64 33.08 449 2.03 415.78 2.03 450.18 62.15 404.47 142.03 437.69 142.03 466.64 91.18 495.54 142.03 528.74 142.03"/></g></svg>